<svg width="411" height="292" viewBox="0 0 411 292" fill="none" xmlns="http://www.w3.org/2000/svg">
<mask id="path-1-inside-1_2964_4044" fill="white">
<path fill-rule="evenodd" clip-rule="evenodd" d="M240.373 0.645434C237.91 1.27243 232.02 5.03444 229.012 7.90344C227.484 9.35944 226.808 11.0024 227.012 12.7614C227.355 15.7274 227.287 15.7184 239.368 14.4234C246.135 13.6984 246.535 13.7774 249.368 16.3814C251.552 18.3884 251.799 18.9074 250.319 18.3774C246.201 16.9024 244.128 16.8314 236.819 17.9174C232.694 18.5304 227.744 19.1544 225.819 19.3044C220.161 19.7444 219.911 19.8264 217.819 21.9184C216.204 23.5334 215.819 25.2514 215.819 30.8474C215.819 37.5494 214.457 40.9184 211.748 40.9184C211.237 40.9184 210.819 41.3684 210.819 41.9184C210.819 42.4684 211.685 42.9184 212.742 42.9184C214.56 42.9184 214.581 43.0894 213.116 46.0254C211.269 49.7274 211.854 57.1514 214.377 62.0304C216.04 65.2474 216.031 66.4044 214.246 79.0024C213.786 82.2504 214.048 84.4604 215.145 86.5814C216.389 88.9874 216.485 90.3964 215.634 93.7474C214.649 97.6294 214.337 97.9184 211.132 97.9184C203.801 97.9184 201.873 101.451 206.319 106.736C209.04 109.969 209.503 112.834 207.612 114.725C206.67 115.667 205.93 115.335 204.234 113.209C202.289 110.77 201.793 110.609 199.477 111.664C198.056 112.312 195.766 114.626 194.39 116.806C191.493 121.394 189.184 122.068 182.819 120.181C175.228 117.93 160.604 114.911 157.89 115.035C156.476 115.099 157.765 115.557 160.754 116.053C163.743 116.549 170.096 118.296 174.873 119.936C188.039 124.457 193.443 123.628 197.226 116.508C199.517 112.196 200.554 112.056 203.445 115.668L205.645 118.418L208.482 116.318C212.35 113.454 212.452 110.989 208.886 106.503C206.48 103.475 206.071 102.316 206.877 100.809C207.993 98.7244 209.997 98.4084 212.751 99.8824C213.942 100.519 214.776 102.538 215.215 105.847C215.796 110.222 216.583 111.541 221.509 116.389C224.606 119.437 227.32 121.751 227.54 121.531C228.331 120.74 221.953 105.782 219.395 102.429C217.15 99.4864 216.878 98.3984 217.467 94.7174C218.849 86.0764 226.396 82.4404 237.13 85.2434C240.196 86.0434 242.956 86.4484 243.262 86.1424C244.666 84.7384 243.57 78.0654 241.336 74.4184C236.407 66.3684 236.333 66.1124 238.315 63.9224C242.155 59.6804 246.819 63.1084 246.819 70.1734C246.819 76.9484 249.003 80.3874 255.156 83.2974C258.202 84.7394 261.157 85.9184 261.722 85.9184C262.287 85.9184 264.34 87.3154 266.284 89.0224C269.126 91.5174 269.819 92.8454 269.819 95.7994C269.819 97.8204 269.16 100.414 268.354 101.564C266.683 103.951 267.232 104.918 270.258 104.918C271.639 104.918 273.013 106.122 274.248 108.416C275.993 111.657 276.012 112.047 274.502 113.716C272.12 116.348 269.816 123.554 269.841 128.294C269.87 133.721 272.847 140.09 276.607 142.767C278.268 143.95 279.88 144.918 280.188 144.918C281.935 144.918 296.125 154.502 298.67 157.402C302.721 162.014 303.353 167.165 302.008 184.586C301.081 196.588 301.144 199.752 302.407 204.628C305.349 215.989 310.003 216.29 317.96 205.633C326.692 193.938 329.871 184.34 329.719 170.13C329.644 163.159 329.979 161.516 332.236 157.755C337.583 148.847 336.808 148.983 344.718 155.567C351.318 161.06 351.717 161.622 351.223 164.751C350.877 166.948 351.275 168.965 352.393 170.672C353.993 173.113 353.988 173.448 352.311 176.564C351.054 178.896 350.834 180.242 351.56 181.142C352.125 181.844 352.917 183.993 353.319 185.918C354.398 191.086 355.494 191.919 361.191 191.906C365.121 191.897 367.721 191.115 372.319 188.562L378.319 185.229L378.839 179.479C379.272 174.685 379.812 173.399 382.089 171.74C385.075 169.565 385.742 165.368 383.636 161.997C382.66 160.434 382.922 159.256 385.13 155.261C392.795 141.392 393.319 139.842 393.319 131.056V122.695L401.03 118.814C408.723 114.942 411.492 112.113 410.392 109.247C409.908 107.986 409.018 108.202 405.065 110.54C386.701 121.401 385.68 121.861 381.26 121.255C372.467 120.05 360.025 124.839 351.686 132.639C347.849 136.229 346.819 137.861 346.819 140.355C346.819 144.116 348.358 145.918 351.569 145.918C355.592 145.918 360.057 142.978 367.359 135.523C373.703 129.045 380.045 124.81 381.389 126.155C382.34 127.106 372.953 145.41 369.37 149.591C367.271 152.041 364.551 154.038 362.783 154.426C361.126 154.79 358.478 156.175 356.898 157.505L354.025 159.922L349.091 156.17C337.983 147.723 338.51 148.386 339.803 144.468C340.442 142.531 341.339 140.715 341.797 140.432C342.254 140.149 343.97 137.555 345.611 134.668C349.466 127.881 355.06 122.359 361.293 119.188C365.843 116.873 366.973 116.712 374.554 117.294L382.84 117.931L384.826 114.675C385.918 112.883 386.813 110.688 386.815 109.796C386.818 108.687 388.043 107.978 390.689 107.555C395.314 106.815 397.675 104.498 396.194 102.151C394.086 98.8094 392.241 98.4964 387.918 100.749L383.767 102.913L382.793 100.35C381.502 96.9534 381.512 96.9184 383.796 96.9184C386.182 96.9184 389.1 92.8154 388.264 90.6364C386.9 87.0814 381.582 87.9394 380.319 91.9174C379.527 94.4134 377.712 94.4624 374.753 92.0664L372.466 90.2144L374.673 87.8444C377.292 85.0344 377.121 82.9404 374.184 81.8564C371.509 80.8684 367.819 83.2564 367.819 85.9754C367.819 87.5754 367.113 87.9184 363.819 87.9184C360.079 87.9184 359.819 87.7314 359.819 85.0404C359.819 81.5924 357.775 79.6454 354.624 80.0914C352.614 80.3764 352.33 80.9614 352.405 84.6684C352.487 88.6834 352.336 88.9184 349.674 88.9184C347.495 88.9184 346.713 88.3464 346.223 86.3924C345.435 83.2504 342.424 81.5494 339.119 82.3794C336.612 83.0084 336.388 84.4024 337.92 89.8344C338.181 90.7604 337.194 91.4944 335.063 91.9594C331.998 92.6264 331.818 92.5124 332.008 90.0144C332.279 86.4634 331.18 84.9184 328.382 84.9184C325.019 84.9184 323.477 87.2844 324.229 91.2914C324.717 93.8894 324.489 94.8314 323.261 95.3024C320.2 96.4764 318.819 95.9394 318.819 93.5734C318.819 90.5174 315.543 87.5534 313.042 88.3474C311.986 88.6824 310.578 90.1524 309.912 91.6134C308.873 93.8944 308.993 94.6624 310.763 97.0574C312.792 99.8004 312.794 99.8614 310.888 100.881C307.403 102.746 305.769 102.163 305.999 99.1394C306.276 95.5074 305.209 93.9144 302.51 93.9334C298.307 93.9634 295.225 98.1054 297.02 101.313C298.093 103.23 296.745 104.87 294.069 104.903C292.129 104.926 292.577 106.734 295.458 110.512C296.91 112.415 297.853 114.217 297.554 114.516C297.255 114.815 294.725 113.566 291.933 111.739C288.063 109.208 286.851 107.817 286.837 105.891C286.809 101.915 284.072 98.7524 280.972 99.1114C277.088 99.5604 276.919 103.172 280.61 106.863C282.678 108.931 283.229 110.108 282.481 110.856C280.666 112.671 279.406 112.005 276.871 107.896C275.524 105.713 273.579 103.659 272.548 103.332C271.22 102.911 270.902 102.254 271.454 101.078C271.883 100.165 272.231 97.7184 272.227 95.6414C272.217 90.7034 269.607 88.1814 259.115 82.9804C251.697 79.3014 250.812 78.5544 249.871 75.1654C249.298 73.1044 248.828 70.1514 248.825 68.6024C248.822 67.0544 248.336 64.8844 247.745 63.7814C247.155 62.6774 246.57 59.5604 246.446 56.8534C246.294 53.5504 245.499 51.0254 244.028 49.1754C242.822 47.6594 240.971 44.7264 239.913 42.6574C238.066 39.0444 238.061 38.8594 239.8 37.9284C241.105 37.2304 241.951 37.3724 242.836 38.4394C243.512 39.2524 245.134 39.9184 246.441 39.9184C248.231 39.9184 248.827 39.3624 248.851 37.6684C248.886 35.1484 251.176 31.6084 252.144 32.5764C252.489 32.9214 253.432 32.6544 254.241 31.9834C255.339 31.0724 255.471 30.1334 254.765 28.2754C254.245 26.9074 253.819 24.9404 253.819 23.9044C253.819 22.1454 254.047 22.1154 257.266 23.4604C259.161 24.2524 260.894 24.5674 261.116 24.1594C262.058 22.4324 259.987 8.82344 258.417 6.42744C254.903 1.06544 247.743 -1.22957 240.373 0.645434ZM242.319 2.84744C238.208 3.83944 234.828 5.68844 231.569 8.72744C228.427 11.6574 227.819 14.5254 230.569 13.4444C231.531 13.0654 235.578 12.5024 239.561 12.1934L246.803 11.6314L251.866 16.7744C254.651 19.6034 257.349 21.9184 257.862 21.9184C259.061 21.9184 258.286 9.65943 256.927 7.11943C254.519 2.62143 249.427 1.13144 242.319 2.84744ZM242.008 18.5804C240.997 19.0014 241.111 19.5854 242.508 21.1364C243.958 22.7454 244.276 24.5974 244.102 30.4374C243.934 36.0694 244.219 37.8574 245.352 38.2924C246.326 38.6664 246.819 38.2134 246.819 36.9464C246.819 35.8954 247.269 34.7584 247.819 34.4184C248.369 34.0784 248.819 32.8784 248.819 31.7514C248.819 30.0384 249.25 29.8094 251.445 30.3604C253.696 30.9254 253.967 30.7624 253.337 29.2194C252.933 28.2284 252.193 26.0044 251.693 24.2764C251.194 22.5484 250.227 20.6724 249.546 20.1074C247.917 18.7544 243.66 17.8924 242.008 18.5804ZM229.83 21.4054C229.122 22.2584 228.865 23.9644 229.226 25.4054C229.979 28.4034 228.24 28.8194 227.302 25.8654C226.77 24.1894 226.382 24.0364 225.18 25.0334C223.118 26.7454 221.587 29.8294 220.769 33.9184C220.384 35.8434 219.712 38.3184 219.275 39.4184C218.497 41.3754 218.525 41.3784 220.593 39.5644C221.755 38.5454 223.013 36.2954 223.388 34.5644C224.263 30.5314 225.247 29.9524 231.255 29.9334C234.957 29.9224 236.767 30.4604 238.501 32.0894C239.771 33.2824 240.976 34.0704 241.177 33.8394C241.379 33.6074 241.787 31.5114 242.085 29.1804C242.833 23.3194 240.183 19.9184 234.869 19.9184C232.721 19.9184 230.526 20.5664 229.83 21.4054ZM221.069 22.4094C217.973 23.7554 217.822 24.0734 217.889 29.1204L217.96 34.4184L219.413 30.4484C220.213 28.2644 222.065 25.2274 223.53 23.6984C226.487 20.6124 225.905 20.3074 221.069 22.4094ZM227.813 33.4114C229.557 35.5124 236.784 37.3534 238.104 36.0334C240.145 33.9924 236.854 31.9184 231.574 31.9184C227.254 31.9184 226.743 32.1214 227.813 33.4114ZM223.398 40.3554L220.556 45.6104L222.262 50.7464C224.26 56.7614 223.336 63.3624 219.248 72.2934C216.28 78.7754 215.457 82.9554 216.761 84.9184C217.579 86.1484 218.117 86.1954 219.755 85.1814C223.236 83.0244 229.391 82.1494 234.931 83.0254C237.867 83.4894 240.65 83.4874 241.117 83.0204C242.379 81.7584 240.217 74.8464 237.341 70.9474C234.151 66.6234 234.176 65.1994 237.506 61.7234C240.018 59.1004 240.06 58.9184 238.141 58.9184C237.012 58.9184 234.945 59.8184 233.546 60.9184C230.187 63.5614 228.968 63.4414 227.794 60.3534C225.374 53.9884 227.33 44.3154 231.897 40.0604C234.062 38.0434 234.081 37.9184 232.23 37.9184C231.149 37.9184 229.359 37.2844 228.252 36.5094C226.371 35.1914 226.057 35.4404 223.398 40.3554ZM233.066 41.1684C230.436 44.4654 228.819 49.2774 228.819 53.8094C228.819 58.9304 229.984 60.8164 232.113 59.1424C234.202 57.4994 238.585 56.8784 241.165 57.8594C245.945 59.6774 245.476 53.2424 240.389 47.2244C238.62 45.1314 236.881 42.6314 236.527 41.6684C235.768 39.6114 234.46 39.4214 233.066 41.1684ZM215.988 46.4314C213.266 49.8904 213.251 53.3254 215.926 60.4744C217.377 64.3524 218.354 65.7834 219.067 65.0704C220.789 63.3484 221.054 54.7514 219.562 49.0464L218.156 43.6744L215.988 46.4314ZM354.962 81.8294C353.235 82.8974 353.893 86.4184 355.819 86.4184C357.49 86.4184 358.447 83.1464 357.154 81.8534C356.686 81.3854 355.699 81.3744 354.962 81.8294ZM340.069 83.6494C338.366 84.2434 338.491 87.4014 340.275 88.8824C342.196 90.4764 343.819 89.3704 343.819 86.4664C343.819 84.0594 342.257 82.8854 340.069 83.6494ZM371.164 84.4614C370.838 85.3104 370.842 86.2744 371.171 86.6044C371.884 87.3164 374.819 85.0564 374.819 83.7964C374.819 82.2864 371.787 82.8394 371.164 84.4614ZM326.284 86.9754C325.426 88.3634 326.59 92.9184 327.803 92.9184C329.26 92.9184 330.884 89.2524 330.208 87.4904C329.52 85.6984 327.257 85.4004 326.284 86.9754ZM312.313 91.9254C310.605 93.8124 310.584 94.1124 312.058 95.5864C314.379 97.9074 317.027 96.5564 316.636 93.2514C316.229 89.8114 314.661 89.3304 312.313 91.9254ZM353.319 90.5724C352.219 90.8094 346.369 91.9244 340.319 93.0504C328.5 95.2494 320.938 97.7494 313.88 101.789C311.332 103.247 306.921 104.627 303.527 105.027C294.454 106.097 294.24 107.185 301.807 113.771C305.376 116.877 314.177 125.381 321.366 132.668C328.555 139.955 334.983 145.918 335.649 145.918C336.316 145.918 337.401 144.68 338.06 143.168C338.719 141.656 341.553 136.817 344.357 132.415C352.776 119.2 364.664 112.621 375.673 115.085C380.601 116.188 381.191 116.129 382.445 114.414C384.258 111.936 384.2 106.479 382.345 104.94C381.535 104.267 380.588 102.203 380.241 100.352C379.854 98.2894 378.873 96.7534 377.709 96.3834C376.663 96.0514 374.561 94.7304 373.036 93.4474C370.842 91.6014 368.708 91.0134 362.792 90.6284C358.682 90.3604 354.419 90.3344 353.319 90.5724ZM382.773 92.0044C382.159 93.1514 381.916 94.3484 382.232 94.6644C383.067 95.4994 386.872 91.8124 386.236 90.7844C385.334 89.3254 383.945 89.8144 382.773 92.0044ZM300.019 96.1184C299.359 96.7784 298.819 98.3844 298.819 99.6884C298.819 101.573 299.279 101.992 301.069 101.738C302.794 101.493 303.392 100.659 303.632 98.1684C303.963 94.7364 302.328 93.8094 300.019 96.1184ZM279.819 101.918C279.819 103.317 283.858 107.212 284.571 106.5C285.489 105.581 282.632 100.918 281.15 100.918C280.418 100.918 279.819 101.368 279.819 101.918ZM388.92 102.807C387.145 104.171 386.885 104.777 387.92 105.132C390.039 105.859 394.819 103.911 394.819 102.32C394.819 100.36 391.776 100.611 388.92 102.807ZM217.85 106.945C217.817 109.627 220.295 113.918 221.876 113.918C223.338 113.918 223.013 112.749 220.345 108.418C218.086 104.75 217.879 104.628 217.85 106.945ZM282.545 113.502C281.02 114.33 279.368 114.757 278.875 114.453C277.265 113.457 273.96 118.921 272.804 124.491C270.707 134.591 274.581 140.765 286.905 146.961C304.518 155.817 306.143 159.686 304.345 188.473C303.646 199.649 303.777 202.276 305.254 206.723C307.387 213.143 308.85 213.293 314.24 207.644C320.6 200.98 325.597 189.683 326.777 179.301C327.318 174.534 327.513 170.231 327.209 169.739C326.05 167.865 328.109 160.819 331.422 155.318L334.87 149.592L328.594 143.172C325.143 139.641 318.719 133.886 314.319 130.382C309.919 126.878 305.43 123.214 304.343 122.239C301.814 119.97 287.694 111.905 286.343 111.958C285.78 111.98 284.071 112.675 282.545 113.502ZM146.083 114.636C147.603 114.865 149.853 114.859 151.083 114.622C152.313 114.385 151.069 114.197 148.319 114.204C145.569 114.212 144.563 114.406 146.083 114.636ZM124.319 117.324C119.266 118.93 109.528 124.094 104.319 127.929C98.9218 131.903 94.9258 132.906 84.4698 132.912C71.7898 132.92 69.7528 134.106 64.7848 144.371C61.0578 152.071 60.8188 153.11 60.8188 161.631C60.8188 172.166 59.0318 182.398 54.7428 196.418C53.0608 201.918 50.7598 209.568 49.6298 213.418C48.5008 217.268 47.2448 220.643 46.8398 220.918C46.4348 221.193 45.1228 223.649 43.9248 226.377C40.3508 234.513 24.9798 258.746 17.0418 268.76C9.42782 278.364 8.42682 279.462 2.99582 284.176C-0.855178 287.518 -0.932178 288.255 2.41182 289.778C9.98082 293.227 20.1528 291.321 26.9508 285.179C37.1568 275.959 46.7638 252.418 51.7988 224.291C54.2818 210.423 62.0378 178.995 64.7188 171.939C67.4778 164.677 75.1178 153.759 81.5608 147.871C87.3248 142.603 94.6808 137.446 95.4018 138.168C95.6188 138.385 94.4488 140.687 92.8018 143.284C84.7828 155.928 79.8038 176.796 82.4488 186.668C83.7868 191.661 84.8188 188.379 84.8188 179.128C84.8188 168.55 86.4348 160.655 90.3578 152.064C98.1258 135.056 111.089 123.199 127.819 117.8C131.152 116.725 132.334 116.031 130.819 116.039C129.444 116.046 126.519 116.624 124.319 117.324ZM299.819 116.268C299.819 116.499 300.999 117.461 302.442 118.407C303.885 119.352 304.76 119.631 304.386 119.027C303.673 117.873 299.819 115.544 299.819 116.268ZM389.819 121.918C389.026 122.408 388.709 123.141 389.115 123.547C389.52 123.953 390.377 123.76 391.019 123.118C392.53 121.607 391.687 120.764 389.819 121.918ZM370.319 124.101C356.535 128.925 343.992 141.128 350.321 143.557C353.557 144.799 357.623 142.447 364.734 135.222C372.535 127.296 377.122 123.928 380.128 123.922C381.123 123.92 381.659 123.468 381.319 122.918C380.385 121.407 376.965 121.775 370.319 124.101ZM388.839 128.442C389.535 129.28 390.31 129.76 390.562 129.509C391.255 128.815 389.846 126.918 388.638 126.918C387.974 126.918 388.05 127.492 388.839 128.442ZM380.767 135.026C378.876 138.935 375.663 144.642 373.627 147.707C369.847 153.399 369.637 154.913 372.628 154.924C373.558 154.928 375.608 155.603 377.183 156.424C380.589 158.2 381.819 158.306 381.819 156.822C381.819 156.22 382.771 154.39 383.935 152.755C386.002 149.853 386.011 149.66 384.358 144.404C382.193 137.521 382.579 134.523 385.684 134.083C386.985 133.899 388.538 134.237 389.134 134.833C390.522 136.221 391.819 136.225 391.819 134.841C391.819 133.549 386.345 127.918 385.089 127.918C384.603 127.918 382.658 131.116 380.767 135.026ZM385.934 135.847C384.837 136.525 385.011 136.95 386.77 137.892C389.475 139.34 390.741 138.411 388.759 136.43C387.853 135.524 386.805 135.308 385.934 135.847ZM83.7538 138.208C74.8388 141.247 72.3288 143.083 68.1458 149.622C65.5678 153.651 64.3718 156.856 63.8758 161.068C63.4958 164.286 63.4478 166.918 63.7688 166.918C64.0888 166.918 65.8168 164.468 67.6078 161.474C71.8888 154.317 79.2268 146.377 86.1438 141.418C94.5048 135.423 93.9818 134.721 83.7538 138.208ZM71.6908 138.582C70.4468 140.09 70.5288 140.134 72.5688 139.047C74.8958 137.807 75.4688 136.918 73.9408 136.918C73.4588 136.918 72.4458 137.667 71.6908 138.582ZM385.834 142.109C385.843 142.829 386.286 144.093 386.819 144.918C387.607 146.137 387.791 146.008 387.804 144.227C387.812 143.022 387.369 141.758 386.819 141.418C386.269 141.078 385.826 141.389 385.834 142.109ZM364.891 158.341C362.185 161.222 362.47 161.431 370.319 162.308C373.069 162.615 376.331 163.156 377.569 163.509C379.367 164.022 379.819 163.749 379.819 162.15C379.819 159.614 376.418 157.364 371.269 156.494C367.802 155.908 366.943 156.157 364.891 158.341ZM359.819 157.918C359.819 158.468 360.242 158.918 360.76 158.918C361.278 158.918 361.979 158.468 362.319 157.918C362.659 157.368 362.235 156.918 361.378 156.918C360.521 156.918 359.819 157.368 359.819 157.918ZM126.569 162.949C128.792 163.843 128.819 164.082 128.819 182.918C128.819 201.754 128.792 201.993 126.569 202.887C124.98 203.525 126.965 203.79 133.319 203.787C140.508 203.784 141.866 203.564 140.069 202.698C137.943 201.672 137.819 201.021 137.819 190.9C137.819 181.577 138.088 179.846 139.892 177.553C142.333 174.449 143.902 174.247 146.164 176.747C147.493 178.215 147.819 180.744 147.819 189.592C147.819 202.67 148.561 203.918 156.339 203.918C160.429 203.918 160.943 203.719 159.576 202.668C158.282 201.673 157.886 199.107 157.635 190.079C157.33 179.122 157.226 178.661 154.565 176.374C150.98 173.293 145.478 172.259 141.992 174.01C140.522 174.749 138.981 175.518 138.569 175.719C138.157 175.92 137.819 173.437 137.819 170.201C137.819 166.959 137.28 163.779 136.619 163.118C135.956 162.455 132.937 161.946 129.869 161.981C125.528 162.031 124.809 162.242 126.569 162.949ZM205.651 164.388C204.79 166.277 204.824 167.219 205.794 168.388C207.57 170.528 211.545 170.298 212.784 167.984C214.123 165.482 214.107 165.349 212.248 163.489C209.918 161.16 206.937 161.566 205.651 164.388ZM359.569 163.809C362.14 166.308 362.297 167.04 360.619 168.718C358.771 170.566 357.285 170.158 355.808 167.398C354.938 165.772 354.116 165.221 353.491 165.846C352.865 166.472 353.107 167.708 354.17 169.331C356.24 172.49 356.257 174.847 354.232 177.738C353.146 179.289 352.96 180.385 353.642 181.211C354.19 181.875 355.045 183.992 355.542 185.916C356.039 187.841 357.131 189.547 357.969 189.708C358.808 189.87 361.924 188.367 364.894 186.368C369.061 183.564 370.991 182.846 373.343 183.228C376.339 183.714 376.396 183.644 376.586 179.267C376.693 176.816 377.4 173.927 378.157 172.845C380.427 169.605 379.114 166.041 375.457 165.517C367.768 164.414 361.162 163.144 359.319 162.415C357.499 161.694 357.521 161.819 359.569 163.809ZM357.819 166.918C357.819 167.468 358.296 167.918 358.878 167.918C359.46 167.918 359.659 167.468 359.319 166.918C358.979 166.368 358.503 165.918 358.26 165.918C358.017 165.918 357.819 166.368 357.819 166.918ZM102.319 174.274C95.3498 177.5 91.9388 185.031 93.7598 193.168C96.2148 204.134 111.46 208.888 118.259 200.807C120.951 197.608 121.49 195.918 119.819 195.918C119.269 195.918 118.819 196.515 118.819 197.244C118.819 199.555 114.323 202.919 111.255 202.903C105.456 202.872 103.819 199.798 103.819 188.934C103.819 179.735 105.482 175.292 109.28 174.338C112.856 173.441 113.819 174.532 113.819 179.477C113.819 183.557 114.024 183.918 116.34 183.918C118.072 183.918 119.225 183.12 120.022 181.372C121.041 179.136 120.863 178.508 118.565 176.21C115.396 173.04 107.115 172.054 102.319 174.274ZM173.035 174.906C165.593 178.284 162.834 187.948 166.811 196.711C169.366 202.34 175.721 205.445 182.939 204.59C192.25 203.487 196.275 198.766 196.302 188.918C196.323 181.042 193.924 176.977 187.812 174.532C182.524 172.416 178.285 172.523 173.035 174.906ZM230.035 174.85C226.794 176.363 225.278 177.893 223.807 181.134C219.834 189.888 222.596 199.554 230.035 202.93C235.765 205.53 240.755 205.442 244.821 202.668C248.062 200.457 250.729 195.918 248.787 195.918C248.254 195.918 247.819 196.56 247.819 197.345C247.819 199.679 242.814 202.918 239.207 202.918C234.018 202.918 232.386 199.579 232.41 189.016C232.421 184.186 232.963 179.442 233.647 178.191C235.231 175.294 238.389 173.647 240.857 174.43C242.423 174.927 242.819 175.96 242.819 179.552C242.819 183.87 242.93 184.038 245.569 183.734C247.818 183.476 248.373 182.862 248.618 180.367C249.043 176.023 246.059 173.669 239.554 173.215C235.809 172.954 233.1 173.419 230.035 174.85ZM261.89 174.67C257.101 177.111 254.62 180.934 254.063 186.727C253.457 193.041 255.157 198.183 258.891 201.325C262.065 203.996 269.176 205.547 273.392 204.489C276.674 203.665 280.832 199.571 280.779 197.213C280.749 195.88 280.359 196.119 279.26 198.143C277.454 201.471 274.923 202.918 270.908 202.918C267.147 202.918 264.588 199.448 264.43 194.131L264.319 190.418L272.427 189.815C281.911 189.109 282.82 188.697 282.815 185.109C282.803 175.928 270.985 170.032 261.89 174.67ZM178.352 175.882C174.185 180.486 174.075 196.779 178.178 201.549C182.549 206.63 186.304 201.031 186.313 189.418C186.32 181.452 185.504 177.745 183.246 175.488C181.209 173.451 180.5 173.508 178.352 175.882ZM203.069 174.998C204.593 175.885 204.819 177.687 204.819 188.918C204.819 200.149 204.593 201.951 203.069 202.838C201.782 203.588 203.567 203.857 209.819 203.857C216.071 203.857 217.856 203.588 216.569 202.838C215.051 201.954 214.819 200.174 214.819 189.44C214.819 174.735 214.372 173.902 206.498 173.948C202.493 173.972 201.716 174.21 203.069 174.998ZM266.997 174.788C265.554 175.702 263.881 181.77 263.843 186.225C263.82 188.913 264.001 189.02 268.069 188.725L272.319 188.418L272.579 183.918C272.962 177.286 270.196 172.762 266.997 174.788ZM368.481 186.536C366.919 187.382 365.865 188.297 366.138 188.57C366.671 189.103 372.819 186.18 372.819 185.392C372.819 184.574 371.42 184.943 368.481 186.536ZM289.019 197.118C287.16 198.977 287.601 202.731 289.819 203.918C293.664 205.976 297.849 201.712 295.78 197.846C294.626 195.689 290.854 195.283 289.019 197.118ZM43.8188 232.599C41.3438 236.797 37.7398 242.974 35.8098 246.325C27.6858 260.432 20.0278 270.529 9.98082 280.383C4.28882 285.966 4.00282 286.463 5.51382 288.133C9.67182 292.728 22.6478 287.936 29.1138 279.418C36.3098 269.939 43.4808 252.552 47.3568 235.184C48.2448 231.206 48.8248 227.279 48.6448 226.458C48.4658 225.638 46.2938 228.401 43.8188 232.599Z"/>
</mask>
<path fill-rule="evenodd" clip-rule="evenodd" d="M240.373 0.645434C237.91 1.27243 232.02 5.03444 229.012 7.90344C227.484 9.35944 226.808 11.0024 227.012 12.7614C227.355 15.7274 227.287 15.7184 239.368 14.4234C246.135 13.6984 246.535 13.7774 249.368 16.3814C251.552 18.3884 251.799 18.9074 250.319 18.3774C246.201 16.9024 244.128 16.8314 236.819 17.9174C232.694 18.5304 227.744 19.1544 225.819 19.3044C220.161 19.7444 219.911 19.8264 217.819 21.9184C216.204 23.5334 215.819 25.2514 215.819 30.8474C215.819 37.5494 214.457 40.9184 211.748 40.9184C211.237 40.9184 210.819 41.3684 210.819 41.9184C210.819 42.4684 211.685 42.9184 212.742 42.9184C214.56 42.9184 214.581 43.0894 213.116 46.0254C211.269 49.7274 211.854 57.1514 214.377 62.0304C216.04 65.2474 216.031 66.4044 214.246 79.0024C213.786 82.2504 214.048 84.4604 215.145 86.5814C216.389 88.9874 216.485 90.3964 215.634 93.7474C214.649 97.6294 214.337 97.9184 211.132 97.9184C203.801 97.9184 201.873 101.451 206.319 106.736C209.04 109.969 209.503 112.834 207.612 114.725C206.67 115.667 205.93 115.335 204.234 113.209C202.289 110.77 201.793 110.609 199.477 111.664C198.056 112.312 195.766 114.626 194.39 116.806C191.493 121.394 189.184 122.068 182.819 120.181C175.228 117.93 160.604 114.911 157.89 115.035C156.476 115.099 157.765 115.557 160.754 116.053C163.743 116.549 170.096 118.296 174.873 119.936C188.039 124.457 193.443 123.628 197.226 116.508C199.517 112.196 200.554 112.056 203.445 115.668L205.645 118.418L208.482 116.318C212.35 113.454 212.452 110.989 208.886 106.503C206.48 103.475 206.071 102.316 206.877 100.809C207.993 98.7244 209.997 98.4084 212.751 99.8824C213.942 100.519 214.776 102.538 215.215 105.847C215.796 110.222 216.583 111.541 221.509 116.389C224.606 119.437 227.32 121.751 227.54 121.531C228.331 120.74 221.953 105.782 219.395 102.429C217.15 99.4864 216.878 98.3984 217.467 94.7174C218.849 86.0764 226.396 82.4404 237.13 85.2434C240.196 86.0434 242.956 86.4484 243.262 86.1424C244.666 84.7384 243.57 78.0654 241.336 74.4184C236.407 66.3684 236.333 66.1124 238.315 63.9224C242.155 59.6804 246.819 63.1084 246.819 70.1734C246.819 76.9484 249.003 80.3874 255.156 83.2974C258.202 84.7394 261.157 85.9184 261.722 85.9184C262.287 85.9184 264.34 87.3154 266.284 89.0224C269.126 91.5174 269.819 92.8454 269.819 95.7994C269.819 97.8204 269.16 100.414 268.354 101.564C266.683 103.951 267.232 104.918 270.258 104.918C271.639 104.918 273.013 106.122 274.248 108.416C275.993 111.657 276.012 112.047 274.502 113.716C272.12 116.348 269.816 123.554 269.841 128.294C269.87 133.721 272.847 140.09 276.607 142.767C278.268 143.95 279.88 144.918 280.188 144.918C281.935 144.918 296.125 154.502 298.67 157.402C302.721 162.014 303.353 167.165 302.008 184.586C301.081 196.588 301.144 199.752 302.407 204.628C305.349 215.989 310.003 216.29 317.96 205.633C326.692 193.938 329.871 184.34 329.719 170.13C329.644 163.159 329.979 161.516 332.236 157.755C337.583 148.847 336.808 148.983 344.718 155.567C351.318 161.06 351.717 161.622 351.223 164.751C350.877 166.948 351.275 168.965 352.393 170.672C353.993 173.113 353.988 173.448 352.311 176.564C351.054 178.896 350.834 180.242 351.56 181.142C352.125 181.844 352.917 183.993 353.319 185.918C354.398 191.086 355.494 191.919 361.191 191.906C365.121 191.897 367.721 191.115 372.319 188.562L378.319 185.229L378.839 179.479C379.272 174.685 379.812 173.399 382.089 171.74C385.075 169.565 385.742 165.368 383.636 161.997C382.66 160.434 382.922 159.256 385.13 155.261C392.795 141.392 393.319 139.842 393.319 131.056V122.695L401.03 118.814C408.723 114.942 411.492 112.113 410.392 109.247C409.908 107.986 409.018 108.202 405.065 110.54C386.701 121.401 385.68 121.861 381.26 121.255C372.467 120.05 360.025 124.839 351.686 132.639C347.849 136.229 346.819 137.861 346.819 140.355C346.819 144.116 348.358 145.918 351.569 145.918C355.592 145.918 360.057 142.978 367.359 135.523C373.703 129.045 380.045 124.81 381.389 126.155C382.34 127.106 372.953 145.41 369.37 149.591C367.271 152.041 364.551 154.038 362.783 154.426C361.126 154.79 358.478 156.175 356.898 157.505L354.025 159.922L349.091 156.17C337.983 147.723 338.51 148.386 339.803 144.468C340.442 142.531 341.339 140.715 341.797 140.432C342.254 140.149 343.97 137.555 345.611 134.668C349.466 127.881 355.06 122.359 361.293 119.188C365.843 116.873 366.973 116.712 374.554 117.294L382.84 117.931L384.826 114.675C385.918 112.883 386.813 110.688 386.815 109.796C386.818 108.687 388.043 107.978 390.689 107.555C395.314 106.815 397.675 104.498 396.194 102.151C394.086 98.8094 392.241 98.4964 387.918 100.749L383.767 102.913L382.793 100.35C381.502 96.9534 381.512 96.9184 383.796 96.9184C386.182 96.9184 389.1 92.8154 388.264 90.6364C386.9 87.0814 381.582 87.9394 380.319 91.9174C379.527 94.4134 377.712 94.4624 374.753 92.0664L372.466 90.2144L374.673 87.8444C377.292 85.0344 377.121 82.9404 374.184 81.8564C371.509 80.8684 367.819 83.2564 367.819 85.9754C367.819 87.5754 367.113 87.9184 363.819 87.9184C360.079 87.9184 359.819 87.7314 359.819 85.0404C359.819 81.5924 357.775 79.6454 354.624 80.0914C352.614 80.3764 352.33 80.9614 352.405 84.6684C352.487 88.6834 352.336 88.9184 349.674 88.9184C347.495 88.9184 346.713 88.3464 346.223 86.3924C345.435 83.2504 342.424 81.5494 339.119 82.3794C336.612 83.0084 336.388 84.4024 337.92 89.8344C338.181 90.7604 337.194 91.4944 335.063 91.9594C331.998 92.6264 331.818 92.5124 332.008 90.0144C332.279 86.4634 331.18 84.9184 328.382 84.9184C325.019 84.9184 323.477 87.2844 324.229 91.2914C324.717 93.8894 324.489 94.8314 323.261 95.3024C320.2 96.4764 318.819 95.9394 318.819 93.5734C318.819 90.5174 315.543 87.5534 313.042 88.3474C311.986 88.6824 310.578 90.1524 309.912 91.6134C308.873 93.8944 308.993 94.6624 310.763 97.0574C312.792 99.8004 312.794 99.8614 310.888 100.881C307.403 102.746 305.769 102.163 305.999 99.1394C306.276 95.5074 305.209 93.9144 302.51 93.9334C298.307 93.9634 295.225 98.1054 297.02 101.313C298.093 103.23 296.745 104.87 294.069 104.903C292.129 104.926 292.577 106.734 295.458 110.512C296.91 112.415 297.853 114.217 297.554 114.516C297.255 114.815 294.725 113.566 291.933 111.739C288.063 109.208 286.851 107.817 286.837 105.891C286.809 101.915 284.072 98.7524 280.972 99.1114C277.088 99.5604 276.919 103.172 280.61 106.863C282.678 108.931 283.229 110.108 282.481 110.856C280.666 112.671 279.406 112.005 276.871 107.896C275.524 105.713 273.579 103.659 272.548 103.332C271.22 102.911 270.902 102.254 271.454 101.078C271.883 100.165 272.231 97.7184 272.227 95.6414C272.217 90.7034 269.607 88.1814 259.115 82.9804C251.697 79.3014 250.812 78.5544 249.871 75.1654C249.298 73.1044 248.828 70.1514 248.825 68.6024C248.822 67.0544 248.336 64.8844 247.745 63.7814C247.155 62.6774 246.57 59.5604 246.446 56.8534C246.294 53.5504 245.499 51.0254 244.028 49.1754C242.822 47.6594 240.971 44.7264 239.913 42.6574C238.066 39.0444 238.061 38.8594 239.8 37.9284C241.105 37.2304 241.951 37.3724 242.836 38.4394C243.512 39.2524 245.134 39.9184 246.441 39.9184C248.231 39.9184 248.827 39.3624 248.851 37.6684C248.886 35.1484 251.176 31.6084 252.144 32.5764C252.489 32.9214 253.432 32.6544 254.241 31.9834C255.339 31.0724 255.471 30.1334 254.765 28.2754C254.245 26.9074 253.819 24.9404 253.819 23.9044C253.819 22.1454 254.047 22.1154 257.266 23.4604C259.161 24.2524 260.894 24.5674 261.116 24.1594C262.058 22.4324 259.987 8.82344 258.417 6.42744C254.903 1.06544 247.743 -1.22957 240.373 0.645434ZM242.319 2.84744C238.208 3.83944 234.828 5.68844 231.569 8.72744C228.427 11.6574 227.819 14.5254 230.569 13.4444C231.531 13.0654 235.578 12.5024 239.561 12.1934L246.803 11.6314L251.866 16.7744C254.651 19.6034 257.349 21.9184 257.862 21.9184C259.061 21.9184 258.286 9.65943 256.927 7.11943C254.519 2.62143 249.427 1.13144 242.319 2.84744ZM242.008 18.5804C240.997 19.0014 241.111 19.5854 242.508 21.1364C243.958 22.7454 244.276 24.5974 244.102 30.4374C243.934 36.0694 244.219 37.8574 245.352 38.2924C246.326 38.6664 246.819 38.2134 246.819 36.9464C246.819 35.8954 247.269 34.7584 247.819 34.4184C248.369 34.0784 248.819 32.8784 248.819 31.7514C248.819 30.0384 249.25 29.8094 251.445 30.3604C253.696 30.9254 253.967 30.7624 253.337 29.2194C252.933 28.2284 252.193 26.0044 251.693 24.2764C251.194 22.5484 250.227 20.6724 249.546 20.1074C247.917 18.7544 243.66 17.8924 242.008 18.5804ZM229.83 21.4054C229.122 22.2584 228.865 23.9644 229.226 25.4054C229.979 28.4034 228.24 28.8194 227.302 25.8654C226.77 24.1894 226.382 24.0364 225.18 25.0334C223.118 26.7454 221.587 29.8294 220.769 33.9184C220.384 35.8434 219.712 38.3184 219.275 39.4184C218.497 41.3754 218.525 41.3784 220.593 39.5644C221.755 38.5454 223.013 36.2954 223.388 34.5644C224.263 30.5314 225.247 29.9524 231.255 29.9334C234.957 29.9224 236.767 30.4604 238.501 32.0894C239.771 33.2824 240.976 34.0704 241.177 33.8394C241.379 33.6074 241.787 31.5114 242.085 29.1804C242.833 23.3194 240.183 19.9184 234.869 19.9184C232.721 19.9184 230.526 20.5664 229.83 21.4054ZM221.069 22.4094C217.973 23.7554 217.822 24.0734 217.889 29.1204L217.96 34.4184L219.413 30.4484C220.213 28.2644 222.065 25.2274 223.53 23.6984C226.487 20.6124 225.905 20.3074 221.069 22.4094ZM227.813 33.4114C229.557 35.5124 236.784 37.3534 238.104 36.0334C240.145 33.9924 236.854 31.9184 231.574 31.9184C227.254 31.9184 226.743 32.1214 227.813 33.4114ZM223.398 40.3554L220.556 45.6104L222.262 50.7464C224.26 56.7614 223.336 63.3624 219.248 72.2934C216.28 78.7754 215.457 82.9554 216.761 84.9184C217.579 86.1484 218.117 86.1954 219.755 85.1814C223.236 83.0244 229.391 82.1494 234.931 83.0254C237.867 83.4894 240.65 83.4874 241.117 83.0204C242.379 81.7584 240.217 74.8464 237.341 70.9474C234.151 66.6234 234.176 65.1994 237.506 61.7234C240.018 59.1004 240.06 58.9184 238.141 58.9184C237.012 58.9184 234.945 59.8184 233.546 60.9184C230.187 63.5614 228.968 63.4414 227.794 60.3534C225.374 53.9884 227.33 44.3154 231.897 40.0604C234.062 38.0434 234.081 37.9184 232.23 37.9184C231.149 37.9184 229.359 37.2844 228.252 36.5094C226.371 35.1914 226.057 35.4404 223.398 40.3554ZM233.066 41.1684C230.436 44.4654 228.819 49.2774 228.819 53.8094C228.819 58.9304 229.984 60.8164 232.113 59.1424C234.202 57.4994 238.585 56.8784 241.165 57.8594C245.945 59.6774 245.476 53.2424 240.389 47.2244C238.62 45.1314 236.881 42.6314 236.527 41.6684C235.768 39.6114 234.46 39.4214 233.066 41.1684ZM215.988 46.4314C213.266 49.8904 213.251 53.3254 215.926 60.4744C217.377 64.3524 218.354 65.7834 219.067 65.0704C220.789 63.3484 221.054 54.7514 219.562 49.0464L218.156 43.6744L215.988 46.4314ZM354.962 81.8294C353.235 82.8974 353.893 86.4184 355.819 86.4184C357.49 86.4184 358.447 83.1464 357.154 81.8534C356.686 81.3854 355.699 81.3744 354.962 81.8294ZM340.069 83.6494C338.366 84.2434 338.491 87.4014 340.275 88.8824C342.196 90.4764 343.819 89.3704 343.819 86.4664C343.819 84.0594 342.257 82.8854 340.069 83.6494ZM371.164 84.4614C370.838 85.3104 370.842 86.2744 371.171 86.6044C371.884 87.3164 374.819 85.0564 374.819 83.7964C374.819 82.2864 371.787 82.8394 371.164 84.4614ZM326.284 86.9754C325.426 88.3634 326.59 92.9184 327.803 92.9184C329.26 92.9184 330.884 89.2524 330.208 87.4904C329.52 85.6984 327.257 85.4004 326.284 86.9754ZM312.313 91.9254C310.605 93.8124 310.584 94.1124 312.058 95.5864C314.379 97.9074 317.027 96.5564 316.636 93.2514C316.229 89.8114 314.661 89.3304 312.313 91.9254ZM353.319 90.5724C352.219 90.8094 346.369 91.9244 340.319 93.0504C328.5 95.2494 320.938 97.7494 313.88 101.789C311.332 103.247 306.921 104.627 303.527 105.027C294.454 106.097 294.24 107.185 301.807 113.771C305.376 116.877 314.177 125.381 321.366 132.668C328.555 139.955 334.983 145.918 335.649 145.918C336.316 145.918 337.401 144.68 338.06 143.168C338.719 141.656 341.553 136.817 344.357 132.415C352.776 119.2 364.664 112.621 375.673 115.085C380.601 116.188 381.191 116.129 382.445 114.414C384.258 111.936 384.2 106.479 382.345 104.94C381.535 104.267 380.588 102.203 380.241 100.352C379.854 98.2894 378.873 96.7534 377.709 96.3834C376.663 96.0514 374.561 94.7304 373.036 93.4474C370.842 91.6014 368.708 91.0134 362.792 90.6284C358.682 90.3604 354.419 90.3344 353.319 90.5724ZM382.773 92.0044C382.159 93.1514 381.916 94.3484 382.232 94.6644C383.067 95.4994 386.872 91.8124 386.236 90.7844C385.334 89.3254 383.945 89.8144 382.773 92.0044ZM300.019 96.1184C299.359 96.7784 298.819 98.3844 298.819 99.6884C298.819 101.573 299.279 101.992 301.069 101.738C302.794 101.493 303.392 100.659 303.632 98.1684C303.963 94.7364 302.328 93.8094 300.019 96.1184ZM279.819 101.918C279.819 103.317 283.858 107.212 284.571 106.5C285.489 105.581 282.632 100.918 281.15 100.918C280.418 100.918 279.819 101.368 279.819 101.918ZM388.92 102.807C387.145 104.171 386.885 104.777 387.92 105.132C390.039 105.859 394.819 103.911 394.819 102.32C394.819 100.36 391.776 100.611 388.92 102.807ZM217.85 106.945C217.817 109.627 220.295 113.918 221.876 113.918C223.338 113.918 223.013 112.749 220.345 108.418C218.086 104.75 217.879 104.628 217.85 106.945ZM282.545 113.502C281.02 114.33 279.368 114.757 278.875 114.453C277.265 113.457 273.96 118.921 272.804 124.491C270.707 134.591 274.581 140.765 286.905 146.961C304.518 155.817 306.143 159.686 304.345 188.473C303.646 199.649 303.777 202.276 305.254 206.723C307.387 213.143 308.85 213.293 314.24 207.644C320.6 200.98 325.597 189.683 326.777 179.301C327.318 174.534 327.513 170.231 327.209 169.739C326.05 167.865 328.109 160.819 331.422 155.318L334.87 149.592L328.594 143.172C325.143 139.641 318.719 133.886 314.319 130.382C309.919 126.878 305.43 123.214 304.343 122.239C301.814 119.97 287.694 111.905 286.343 111.958C285.78 111.98 284.071 112.675 282.545 113.502ZM146.083 114.636C147.603 114.865 149.853 114.859 151.083 114.622C152.313 114.385 151.069 114.197 148.319 114.204C145.569 114.212 144.563 114.406 146.083 114.636ZM124.319 117.324C119.266 118.93 109.528 124.094 104.319 127.929C98.9218 131.903 94.9258 132.906 84.4698 132.912C71.7898 132.92 69.7528 134.106 64.7848 144.371C61.0578 152.071 60.8188 153.11 60.8188 161.631C60.8188 172.166 59.0318 182.398 54.7428 196.418C53.0608 201.918 50.7598 209.568 49.6298 213.418C48.5008 217.268 47.2448 220.643 46.8398 220.918C46.4348 221.193 45.1228 223.649 43.9248 226.377C40.3508 234.513 24.9798 258.746 17.0418 268.76C9.42782 278.364 8.42682 279.462 2.99582 284.176C-0.855178 287.518 -0.932178 288.255 2.41182 289.778C9.98082 293.227 20.1528 291.321 26.9508 285.179C37.1568 275.959 46.7638 252.418 51.7988 224.291C54.2818 210.423 62.0378 178.995 64.7188 171.939C67.4778 164.677 75.1178 153.759 81.5608 147.871C87.3248 142.603 94.6808 137.446 95.4018 138.168C95.6188 138.385 94.4488 140.687 92.8018 143.284C84.7828 155.928 79.8038 176.796 82.4488 186.668C83.7868 191.661 84.8188 188.379 84.8188 179.128C84.8188 168.55 86.4348 160.655 90.3578 152.064C98.1258 135.056 111.089 123.199 127.819 117.8C131.152 116.725 132.334 116.031 130.819 116.039C129.444 116.046 126.519 116.624 124.319 117.324ZM299.819 116.268C299.819 116.499 300.999 117.461 302.442 118.407C303.885 119.352 304.76 119.631 304.386 119.027C303.673 117.873 299.819 115.544 299.819 116.268ZM389.819 121.918C389.026 122.408 388.709 123.141 389.115 123.547C389.52 123.953 390.377 123.76 391.019 123.118C392.53 121.607 391.687 120.764 389.819 121.918ZM370.319 124.101C356.535 128.925 343.992 141.128 350.321 143.557C353.557 144.799 357.623 142.447 364.734 135.222C372.535 127.296 377.122 123.928 380.128 123.922C381.123 123.92 381.659 123.468 381.319 122.918C380.385 121.407 376.965 121.775 370.319 124.101ZM388.839 128.442C389.535 129.28 390.31 129.76 390.562 129.509C391.255 128.815 389.846 126.918 388.638 126.918C387.974 126.918 388.05 127.492 388.839 128.442ZM380.767 135.026C378.876 138.935 375.663 144.642 373.627 147.707C369.847 153.399 369.637 154.913 372.628 154.924C373.558 154.928 375.608 155.603 377.183 156.424C380.589 158.2 381.819 158.306 381.819 156.822C381.819 156.22 382.771 154.39 383.935 152.755C386.002 149.853 386.011 149.66 384.358 144.404C382.193 137.521 382.579 134.523 385.684 134.083C386.985 133.899 388.538 134.237 389.134 134.833C390.522 136.221 391.819 136.225 391.819 134.841C391.819 133.549 386.345 127.918 385.089 127.918C384.603 127.918 382.658 131.116 380.767 135.026ZM385.934 135.847C384.837 136.525 385.011 136.95 386.77 137.892C389.475 139.34 390.741 138.411 388.759 136.43C387.853 135.524 386.805 135.308 385.934 135.847ZM83.7538 138.208C74.8388 141.247 72.3288 143.083 68.1458 149.622C65.5678 153.651 64.3718 156.856 63.8758 161.068C63.4958 164.286 63.4478 166.918 63.7688 166.918C64.0888 166.918 65.8168 164.468 67.6078 161.474C71.8888 154.317 79.2268 146.377 86.1438 141.418C94.5048 135.423 93.9818 134.721 83.7538 138.208ZM71.6908 138.582C70.4468 140.09 70.5288 140.134 72.5688 139.047C74.8958 137.807 75.4688 136.918 73.9408 136.918C73.4588 136.918 72.4458 137.667 71.6908 138.582ZM385.834 142.109C385.843 142.829 386.286 144.093 386.819 144.918C387.607 146.137 387.791 146.008 387.804 144.227C387.812 143.022 387.369 141.758 386.819 141.418C386.269 141.078 385.826 141.389 385.834 142.109ZM364.891 158.341C362.185 161.222 362.47 161.431 370.319 162.308C373.069 162.615 376.331 163.156 377.569 163.509C379.367 164.022 379.819 163.749 379.819 162.15C379.819 159.614 376.418 157.364 371.269 156.494C367.802 155.908 366.943 156.157 364.891 158.341ZM359.819 157.918C359.819 158.468 360.242 158.918 360.76 158.918C361.278 158.918 361.979 158.468 362.319 157.918C362.659 157.368 362.235 156.918 361.378 156.918C360.521 156.918 359.819 157.368 359.819 157.918ZM126.569 162.949C128.792 163.843 128.819 164.082 128.819 182.918C128.819 201.754 128.792 201.993 126.569 202.887C124.98 203.525 126.965 203.79 133.319 203.787C140.508 203.784 141.866 203.564 140.069 202.698C137.943 201.672 137.819 201.021 137.819 190.9C137.819 181.577 138.088 179.846 139.892 177.553C142.333 174.449 143.902 174.247 146.164 176.747C147.493 178.215 147.819 180.744 147.819 189.592C147.819 202.67 148.561 203.918 156.339 203.918C160.429 203.918 160.943 203.719 159.576 202.668C158.282 201.673 157.886 199.107 157.635 190.079C157.33 179.122 157.226 178.661 154.565 176.374C150.98 173.293 145.478 172.259 141.992 174.01C140.522 174.749 138.981 175.518 138.569 175.719C138.157 175.92 137.819 173.437 137.819 170.201C137.819 166.959 137.28 163.779 136.619 163.118C135.956 162.455 132.937 161.946 129.869 161.981C125.528 162.031 124.809 162.242 126.569 162.949ZM205.651 164.388C204.79 166.277 204.824 167.219 205.794 168.388C207.57 170.528 211.545 170.298 212.784 167.984C214.123 165.482 214.107 165.349 212.248 163.489C209.918 161.16 206.937 161.566 205.651 164.388ZM359.569 163.809C362.14 166.308 362.297 167.04 360.619 168.718C358.771 170.566 357.285 170.158 355.808 167.398C354.938 165.772 354.116 165.221 353.491 165.846C352.865 166.472 353.107 167.708 354.17 169.331C356.24 172.49 356.257 174.847 354.232 177.738C353.146 179.289 352.96 180.385 353.642 181.211C354.19 181.875 355.045 183.992 355.542 185.916C356.039 187.841 357.131 189.547 357.969 189.708C358.808 189.87 361.924 188.367 364.894 186.368C369.061 183.564 370.991 182.846 373.343 183.228C376.339 183.714 376.396 183.644 376.586 179.267C376.693 176.816 377.4 173.927 378.157 172.845C380.427 169.605 379.114 166.041 375.457 165.517C367.768 164.414 361.162 163.144 359.319 162.415C357.499 161.694 357.521 161.819 359.569 163.809ZM357.819 166.918C357.819 167.468 358.296 167.918 358.878 167.918C359.46 167.918 359.659 167.468 359.319 166.918C358.979 166.368 358.503 165.918 358.26 165.918C358.017 165.918 357.819 166.368 357.819 166.918ZM102.319 174.274C95.3498 177.5 91.9388 185.031 93.7598 193.168C96.2148 204.134 111.46 208.888 118.259 200.807C120.951 197.608 121.49 195.918 119.819 195.918C119.269 195.918 118.819 196.515 118.819 197.244C118.819 199.555 114.323 202.919 111.255 202.903C105.456 202.872 103.819 199.798 103.819 188.934C103.819 179.735 105.482 175.292 109.28 174.338C112.856 173.441 113.819 174.532 113.819 179.477C113.819 183.557 114.024 183.918 116.34 183.918C118.072 183.918 119.225 183.12 120.022 181.372C121.041 179.136 120.863 178.508 118.565 176.21C115.396 173.04 107.115 172.054 102.319 174.274ZM173.035 174.906C165.593 178.284 162.834 187.948 166.811 196.711C169.366 202.34 175.721 205.445 182.939 204.59C192.25 203.487 196.275 198.766 196.302 188.918C196.323 181.042 193.924 176.977 187.812 174.532C182.524 172.416 178.285 172.523 173.035 174.906ZM230.035 174.85C226.794 176.363 225.278 177.893 223.807 181.134C219.834 189.888 222.596 199.554 230.035 202.93C235.765 205.53 240.755 205.442 244.821 202.668C248.062 200.457 250.729 195.918 248.787 195.918C248.254 195.918 247.819 196.56 247.819 197.345C247.819 199.679 242.814 202.918 239.207 202.918C234.018 202.918 232.386 199.579 232.41 189.016C232.421 184.186 232.963 179.442 233.647 178.191C235.231 175.294 238.389 173.647 240.857 174.43C242.423 174.927 242.819 175.96 242.819 179.552C242.819 183.87 242.93 184.038 245.569 183.734C247.818 183.476 248.373 182.862 248.618 180.367C249.043 176.023 246.059 173.669 239.554 173.215C235.809 172.954 233.1 173.419 230.035 174.85ZM261.89 174.67C257.101 177.111 254.62 180.934 254.063 186.727C253.457 193.041 255.157 198.183 258.891 201.325C262.065 203.996 269.176 205.547 273.392 204.489C276.674 203.665 280.832 199.571 280.779 197.213C280.749 195.88 280.359 196.119 279.26 198.143C277.454 201.471 274.923 202.918 270.908 202.918C267.147 202.918 264.588 199.448 264.43 194.131L264.319 190.418L272.427 189.815C281.911 189.109 282.82 188.697 282.815 185.109C282.803 175.928 270.985 170.032 261.89 174.67ZM178.352 175.882C174.185 180.486 174.075 196.779 178.178 201.549C182.549 206.63 186.304 201.031 186.313 189.418C186.32 181.452 185.504 177.745 183.246 175.488C181.209 173.451 180.5 173.508 178.352 175.882ZM203.069 174.998C204.593 175.885 204.819 177.687 204.819 188.918C204.819 200.149 204.593 201.951 203.069 202.838C201.782 203.588 203.567 203.857 209.819 203.857C216.071 203.857 217.856 203.588 216.569 202.838C215.051 201.954 214.819 200.174 214.819 189.44C214.819 174.735 214.372 173.902 206.498 173.948C202.493 173.972 201.716 174.21 203.069 174.998ZM266.997 174.788C265.554 175.702 263.881 181.77 263.843 186.225C263.82 188.913 264.001 189.02 268.069 188.725L272.319 188.418L272.579 183.918C272.962 177.286 270.196 172.762 266.997 174.788ZM368.481 186.536C366.919 187.382 365.865 188.297 366.138 188.57C366.671 189.103 372.819 186.18 372.819 185.392C372.819 184.574 371.42 184.943 368.481 186.536ZM289.019 197.118C287.16 198.977 287.601 202.731 289.819 203.918C293.664 205.976 297.849 201.712 295.78 197.846C294.626 195.689 290.854 195.283 289.019 197.118ZM43.8188 232.599C41.3438 236.797 37.7398 242.974 35.8098 246.325C27.6858 260.432 20.0278 270.529 9.98082 280.383C4.28882 285.966 4.00282 286.463 5.51382 288.133C9.67182 292.728 22.6478 287.936 29.1138 279.418C36.3098 269.939 43.4808 252.552 47.3568 235.184C48.2448 231.206 48.8248 227.279 48.6448 226.458C48.4658 225.638 46.2938 228.401 43.8188 232.599Z" fill="black" stroke="black" stroke-width="30" mask="url(#path-1-inside-1_2964_4044)"/>
</svg>
